<svg width="230" height="230" viewBox="0 0 230 230" fill="none" xmlns="http://www.w3.org/2000/svg">
<circle cx="115" cy="115" r="115" fill="#a4f8a6"/>
<g clip-path="url(#clip0_35_117)">
<path d="M114.37 48L150.593 117.743L167.732 116.319L184.87 114.894L158.396 132.766C169.932 154.979 184.87 183.741 184.87 183.741L161.077 183.801L140.549 144.814L66.4727 183.801H44L54.9652 162.64L135.365 133.027C135.365 133.027 135.396 133.016 135.457 132.994C136.576 132.584 177.708 117.529 184.87 114.894L167.732 116.319L150.593 117.743L131.372 124.824L115.018 92.3567L103.054 114.894L89.6156 140.207L44 157.012L66.0193 141.308L79.1852 115.9L114.37 48Z" fill="#333333"/>
</g>
<defs>
<clipPath id="clip0_35_117">
<rect width="141" height="136" fill="white" transform="translate(44 48)"/>
</clipPath>
</defs>
</svg>
