<svg width="668" height="200" viewBox="0 0 668 200" fill="none" xmlns="http://www.w3.org/2000/svg">
<path d="M401 200C401 146.957 379.876 96.0859 342.275 58.5786C304.674 21.0714 253.676 4.00466e-06 200.5 0C147.324 -4.00466e-06 96.3262 21.0713 58.7251 58.5786C21.1241 96.0859 8.02934e-06 146.957 0 200L200.5 200H401Z" fill="#D9D9D9"/>
<path d="M668 200C668 168.174 647.824 137.652 611.911 115.147C575.998 92.6428 527.289 80 476.5 80C425.711 80 377.002 92.6428 341.089 115.147C305.176 137.652 285 168.174 285 200L476.5 200H668Z" fill="#D9D9D9"/>
</svg>
