 <svg width="386" height="345" viewBox="0 0 386 339" fill="none" xmlns="http://www.w3.org/2000/svg">
    <path fill-rule="evenodd" clip-rule="evenodd" d="M166.845 7C206.684 7 236.602 29.5966 250.993 64.596C281.492 72.4275 306 97.2746 306 129.5C306 140.937 302.7 152.168 297.053 162.34C317.356 178.978 329.715 202.333 329.015 227.875C327.685 276.458 294.357 318.96 236.389 317.373C211.705 316.697 186.534 308.136 165.869 294.776C144.886 308.486 119.069 317 93.9953 317C37.3861 317 6 273.601 6 225C6 203.886 14.6609 184.509 29.099 169.345C22.7509 158.653 19 146.694 19 134.5C19 102.043 43.8615 77.0711 74.6645 69.43C91.6388 32.4007 126.543 7 166.845 7Z" fill="#333333"/>
    <rect x="133" y="159" width="68.2139" height="128.131" rx="13.7769" fill="white" stroke="#323232" stroke-width="4" stroke-linecap="round"/>
    <path d="M134.896 241.634V200.678L200 201C194.833 222.002 167.523 242.768 134.896 241.634Z" fill="#7E7E7E" fill-opacity="0.45"/>
    <path d="M124 148.5C124 160.189 113.45 170 100 170C86.5501 170 76 160.189 76 148.5C76 136.811 86.5501 127 100 127C113.45 127 124 136.811 124 148.5Z" fill="white" stroke="#333333" stroke-width="4"/>
    <path d="M211 148.5C211 160.189 221.55 170 235 170C248.45 170 259 160.189 259 148.5C259 136.811 248.45 127 235 127C221.55 127 211 136.811 211 148.5Z" fill="white" stroke="#333333" stroke-width="4"/>
    <path d="M234 138.261C234 160.713 228.042 177.834 216.986 189.337C205.941 200.828 189.532 207 168.03 207C146.526 207 129.842 200.827 118.529 189.321C107.211 177.81 101 160.69 101 138.261C101 115.804 107.232 92.379 118.779 74.6291C130.311 56.9028 147.009 45 168.03 45C189.043 45 205.472 56.8934 216.74 74.6117C228.025 92.3582 234 115.787 234 138.261Z" fill="white" stroke="#333333" stroke-width="4" stroke-linecap="round"/>
    <path d="M168 137C166.029 143.812 165 147.371 165 154.458C167.64 155.72 170.163 156.036 174.5 156" stroke="#333333" stroke-width="4" stroke-linecap="round" stroke-linejoin="round"/>
    <path d="M132.768 148.225C134.829 148.225 136.657 147.11 137.953 145.382C139.249 143.655 140.035 141.291 140.035 138.702C140.035 136.112 139.249 133.749 137.953 132.021C136.657 130.294 134.829 129.178 132.768 129.178C130.706 129.178 128.878 130.294 127.582 132.021C126.287 133.749 125.5 136.112 125.5 138.702C125.5 141.291 126.287 143.655 127.582 145.382C128.878 147.11 130.706 148.225 132.768 148.225Z" fill="#333333" stroke="#333333" stroke-linecap="round"/>
    <circle cx="135.616" cy="136.487" r="2.5" fill="white" stroke="#333333"/>
    <path d="M204.768 148.225C206.829 148.225 208.657 147.11 209.953 145.382C211.249 143.655 212.035 141.291 212.035 138.702C212.035 136.112 211.249 133.749 209.953 132.021C208.657 130.294 206.829 129.178 204.768 129.178C202.706 129.178 200.878 130.294 199.582 132.021C198.287 133.749 197.5 136.112 197.5 138.702C197.5 141.291 198.287 143.655 199.582 145.382C200.878 147.11 202.706 148.225 204.768 148.225Z" fill="#333333" stroke="#333333" stroke-linecap="round"/>
    <circle cx="207.616" cy="136.487" r="2" fill="white"/>
    <path d="M160 171.5C163 175.167 170.8 180.3 178 171.5" stroke="#333333" stroke-width="4" stroke-linecap="round" stroke-linejoin="round"/>
    <g filter="url(#filter0_f_190_1827)">
    <ellipse cx="128.5" cy="166.5" rx="9.5" ry="5.5" fill="#FC9D80"/>
    </g>
    <g filter="url(#filter1_f_190_1827)">
    <ellipse cx="207.5" cy="166.5" rx="9.5" ry="5.5" fill="#FC9D80"/>
    </g>
    <path d="M182 69C160.149 111.401 142.136 120.762 95 125C85.5001 60.5 100.661 46.8036 171.5 36C229.144 55.2209 230.619 73.613 232 125C197.433 115.149 194.344 100.803 182 69Z" fill="#323232"/>
    <path d="M133.637 233.566C149.781 261.54 188.874 259.35 201.064 233.821C201.396 233.127 202.144 232.922 202.623 233.139C229.582 245.357 247.284 258.353 259.373 275.321C271.476 292.308 278.102 313.482 282.512 342.356C282.604 342.958 282.132 343.5 281.538 343.5H51.4712C50.8781 343.5 50.4054 342.956 50.5001 342.354C55.2635 312.036 63.0978 290.611 75.931 273.851C88.765 257.091 106.747 244.803 132.18 233.032C132.637 232.82 133.303 232.988 133.637 233.566Z" fill="white" stroke="#323232" stroke-width="4" stroke-linecap="round" stroke-linejoin="round"/>
    <path fill-rule="evenodd" clip-rule="evenodd" d="M104 250.742C111.48 245.735 115.887 243.372 124 239.168V291H213V240.314C221.292 244.502 225.661 247.365 233 252.304V291C237.418 291 241 294.582 241 299V341.5H93V299C93 294.582 96.5817 291 101 291H104V250.742Z" fill="#323232"/>
    <path d="M233 341.5V306C233 301.582 229.418 298 225 298H109C104.582 298 101 301.582 101 306V341.5" stroke="white" stroke-width="0.5" stroke-linecap="round" stroke-dasharray="4 4"/>
    <line x1="110.5" y1="290.5" x2="110.5" y2="250.5" stroke="white" stroke-linecap="round" stroke-dasharray="4 4"/>
    <line x1="226.5" y1="290.5" x2="226.5" y2="250.5" stroke="white" stroke-linecap="round" stroke-dasharray="4 4"/>
    <circle cx="111" cy="297" r="6" fill="white"/>
    <circle cx="225" cy="297" r="6" fill="white"/>
    <path d="M129 323C129 316.925 133.925 312 140 312H193C199.075 312 204 316.925 204 323V342H129V323Z" fill="white" fill-opacity="0.5"/>
    <g filter="url(#filter2_d_190_1827)">
    <path d="M303.985 300.939C303.489 325.904 310.441 303.761 296.095 342.817L330.48 357.849C330.48 357.849 331.515 349.865 342.02 327.639C348.719 318.201 351.685 308.693 357.509 299.008C363.615 288.856 377.509 267.008 372.009 264.008C366.509 261.008 360.834 284.807 355.576 282.508C352.047 280.966 374.009 246.508 364.268 244.238C354.527 241.968 348.436 277.337 346 276.5C340.315 274.547 361.009 231.009 351.43 227.668C341.85 224.328 336.872 269.326 331.5 272C326.128 274.674 337.891 238.74 330.509 235.008C323.128 231.277 321.563 278.05 314.009 282.508C310.477 277.768 309.355 258.811 306.558 258.729C298.719 258.498 304.362 281.976 303.985 300.939Z" fill="white"/>
    <path d="M303.985 300.939C303.489 325.904 310.441 303.761 296.095 342.817L330.48 357.849C330.48 357.849 331.515 349.865 342.02 327.639C348.719 318.201 351.685 308.693 357.509 299.008C363.615 288.856 377.509 267.008 372.009 264.008C366.509 261.008 360.834 284.807 355.576 282.508C352.047 280.966 374.009 246.508 364.268 244.238C354.527 241.968 348.436 277.337 346 276.5C340.315 274.547 361.009 231.009 351.43 227.668C341.85 224.328 336.872 269.326 331.5 272C326.128 274.674 337.891 238.74 330.509 235.008C323.128 231.277 321.563 278.05 314.009 282.508C310.477 277.768 309.355 258.811 306.558 258.729C298.719 258.498 304.362 281.976 303.985 300.939Z" stroke="#323232" stroke-width="4"/>
    </g>
    <rect x="302.871" y="325.472" width="36" height="10" transform="rotate(23.1796 302.871 325.472)" fill="#333333"/>
    <path d="M298.867 329.741L335.638 345.485" stroke="white" stroke-width="0.7" stroke-linecap="round" stroke-dasharray="5 5"/>
    <defs>
    <filter id="filter0_f_190_1827" x="107" y="149" width="43" height="35" filterUnits="userSpaceOnUse" color-interpolation-filters="sRGB">
    <feFlood flood-opacity="0" result="BackgroundImageFix"/>
    <feBlend mode="normal" in="SourceGraphic" in2="BackgroundImageFix" result="shape"/>
    <feGaussianBlur stdDeviation="6" result="effect1_foregroundBlur_190_1827"/>
    </filter>
    <filter id="filter1_f_190_1827" x="186" y="149" width="43" height="35" filterUnits="userSpaceOnUse" color-interpolation-filters="sRGB">
    <feFlood flood-opacity="0" result="BackgroundImageFix"/>
    <feBlend mode="normal" in="SourceGraphic" in2="BackgroundImageFix" result="shape"/>
    <feGaussianBlur stdDeviation="6" result="effect1_foregroundBlur_190_1827"/>
    </filter>
    <filter id="filter2_d_190_1827" x="289.568" y="225.489" width="89.7026" height="143.261" filterUnits="userSpaceOnUse" color-interpolation-filters="sRGB">
    <feFlood flood-opacity="0" result="BackgroundImageFix"/>
    <feColorMatrix in="SourceAlpha" type="matrix" values="0 0 0 0 0 0 0 0 0 0 0 0 0 0 0 0 0 0 127 0" result="hardAlpha"/>
    <feOffset dy="4"/>
    <feGaussianBlur stdDeviation="2"/>
    <feComposite in2="hardAlpha" operator="out"/>
    <feColorMatrix type="matrix" values="0 0 0 0 0 0 0 0 0 0 0 0 0 0 0 0 0 0 0.25 0"/>
    <feBlend mode="normal" in2="BackgroundImageFix" result="effect1_dropShadow_190_1827"/>
    <feBlend mode="normal" in="SourceGraphic" in2="effect1_dropShadow_190_1827" result="shape"/>
    </filter>
    </defs>
</svg>