<svg width="250" height="250" viewBox="0 0 250 250" fill="none" xmlns="http://www.w3.org/2000/svg">
<path d="M171.388 174.967L171.519 170.82L163.119 160.572C163.119 160.572 164.287 157.44 165.205 155.509C165.892 154.061 166.043 153.069 167.111 151.874C167.537 151.398 167.676 150.784 168.315 150.766C168.852 150.751 169.13 151.088 169.483 151.493C169.923 152 169.915 152.457 170.054 153.114C170.382 154.656 169.578 156.927 170.197 157.391C170.817 157.856 171.803 157.58 173.188 157.475C174.572 157.37 177.195 153.712 180.325 153.817C181.188 153.846 181.888 153.584 182.506 154.187C182.986 154.656 183.041 155.137 183.078 155.807C183.146 157.053 182.263 157.586 181.564 158.619C180.261 160.546 177.358 162.837 177.358 162.837C177.358 162.837 179.643 161.15 181.254 160.323C182.376 159.747 182.965 159.164 184.221 159.049C184.857 158.99 185.346 158.767 185.854 159.156C186.193 159.416 186.271 159.694 186.414 160.097C186.556 160.501 186.608 160.756 186.568 161.181C186.498 161.952 186.049 162.283 185.579 162.897C184.917 163.763 184.325 164.047 183.506 164.768C181.693 166.363 178.752 168.723 178.752 168.723C178.752 168.723 182.349 167.009 184.828 166.579C185.59 166.447 186.186 165.864 186.795 166.341C187.067 166.554 187.168 166.753 187.283 167.08C187.398 167.406 187.402 167.617 187.366 167.961C187.273 168.864 186.594 169.159 185.972 169.82C185.008 170.844 184.306 171.273 183.089 171.977C181.2 173.067 180.06 173.611 177.965 174.24C176.669 174.629 175.927 174.842 174.581 174.979C173.34 175.105 171.388 174.967 171.388 174.967Z" fill="#333333"/>
<path d="M113.526 191.739C113.526 191.739 95.1071 183.76 86.1935 174.961C76.6741 165.564 68.3581 145.72 68.3581 145.72C68.3581 145.72 77.3672 133.294 84.3257 126.418C94.7847 116.083 114.783 104.282 114.783 104.282L156.567 139.422C156.567 139.422 147.027 156.34 139.3 166.016C130.427 177.129 113.526 191.739 113.526 191.739Z" fill="#D9D9D9"/>
<path d="M86.4789 183.517C95.3926 192.316 113.812 200.295 113.812 200.295C113.812 200.295 130.712 185.684 139.586 174.572C147.312 164.895 156.853 147.978 156.853 147.978L156.567 139.423C156.567 139.423 147.027 156.34 139.3 166.016C130.427 177.129 113.526 191.74 113.526 191.74C113.526 191.74 95.1071 183.76 86.1935 174.962C76.6742 165.565 68.3581 145.72 68.3581 145.72C68.3581 145.72 77.3671 133.295 84.3257 126.419C93.9869 116.872 111.787 106.074 114.447 104.482L114.377 104.425C114.377 104.425 95.7064 113.968 86.1013 123.059C77.9376 130.785 68.3581 145.72 68.3581 145.72L68.6435 154.276C68.6435 154.276 76.9596 174.12 86.4789 183.517Z" fill="#A9A9A9"/>
<path d="M113.812 200.295C113.812 200.295 130.712 185.684 139.586 174.571C147.312 164.895 156.853 147.978 156.853 147.978L156.567 139.422C156.567 139.422 147.027 156.34 139.3 166.016C130.427 177.129 113.526 191.74 113.526 191.74L113.812 200.295Z" fill="#424242"/>
<path d="M177.358 162.837C177.358 162.837 180.261 160.546 181.565 158.619C182.263 157.586 183.146 157.052 183.078 155.807C183.041 155.137 182.986 154.656 182.506 154.187C182.026 153.718 181.582 154.358 181.362 154.818C181.142 155.278 181.666 155.6 181.588 156.105C181.458 156.958 180.664 157.088 180.123 157.761C179.481 158.559 179.262 159.114 178.597 159.894C178.111 160.465 177.491 160.561 177.263 161.276C177.077 161.858 177.358 162.837 177.358 162.837Z" fill="#D9D9D9"/>
<path d="M178.752 168.724C178.752 168.724 181.693 166.364 183.506 164.769C184.325 164.048 184.917 163.764 185.58 162.898C186.05 162.284 186.498 161.952 186.569 161.182C186.608 160.756 186.556 160.501 186.414 160.098C186.272 159.695 185.85 160.044 185.532 160.181C184.931 160.441 184.757 160.271 184.388 160.812C183.837 161.62 184.081 161.869 183.421 162.591C182.612 163.479 181.576 164.44 180.73 165.293C180.069 165.958 179.362 165.788 178.919 166.615C178.665 167.088 178.562 167.92 178.752 168.724Z" fill="#D9D9D9"/>
<path d="M174.581 174.978C175.927 174.842 176.67 174.629 177.965 174.24C180.06 173.611 181.2 173.067 183.089 171.976C184.307 171.273 185.009 170.844 185.973 169.82C186.595 169.159 187.273 168.864 187.367 167.961C187.402 167.617 187.399 167.405 187.284 167.079C187.284 167.079 184.917 168.919 183.256 169.867C181.936 170.62 181.215 171.145 179.753 171.559C178.343 171.958 177.486 172.039 176.023 171.964C174.211 171.871 171.519 170.82 171.519 170.82L171.388 174.966C171.388 174.966 173.341 175.104 174.581 174.978Z" fill="#D9D9D9"/>
<path d="M102.022 181.829C101.74 181.974 101.401 181.809 101.323 181.501C100.921 179.922 100.466 178.731 99.6813 177.035C98.075 173.563 96.603 171.878 94.1055 168.98C92.9044 167.587 92.1853 166.841 90.8528 165.572C88.341 163.181 86.7714 161.992 83.8946 160.055C81.1496 158.207 79.6794 156.91 76.607 155.84C76.3783 155.76 76.232 155.529 76.2814 155.292C76.9124 152.265 79.4986 151.297 81.0594 149.438C81.0594 149.438 84.5245 153.599 87.958 155.432C91.6762 157.418 93.3897 159.092 96.2983 162.284C99.0367 165.289 100.61 167.647 102.434 171.28C104.022 174.443 107.295 177.31 107.295 177.31C105.314 179.43 104.162 180.726 102.022 181.829Z" fill="url(#paint0_linear_295_224)"/>
<path d="M174.994 64.2611C174.249 64.9385 173.412 66.296 173.412 66.296L163.915 54.0139L167.004 51.7903C167.004 51.7903 166.281 43.5525 168.641 39.1864C169.884 36.8876 174.412 33.061 177.345 35.3419C182.602 39.4292 182.833 43.4255 183.074 49.3201C183.289 54.5813 183.738 59.1998 179.496 62.32C177.954 63.4546 176.41 62.9727 174.994 64.2611Z" fill="#424242"/>
<path d="M167.004 51.7908L163.915 54.0143L168.154 57.3106C168.154 57.3106 170.151 56.4177 170.81 55.2944C171.659 53.8474 171.37 52.605 170.885 50.999C170.378 49.3223 168.807 49.0162 168.285 47.3445C167.803 45.8065 168.155 44.8284 168.227 43.2186C168.298 41.6374 168.641 39.1868 168.641 39.1868C166.28 43.5529 167.004 51.7908 167.004 51.7908Z" fill="#333333"/>
<path d="M174.994 64.2611C176.41 62.9727 177.954 63.4546 179.496 62.32C183.738 59.1998 183.289 54.5813 183.074 49.3201C182.833 43.4255 182.602 39.4293 177.345 35.3419C177.345 35.3419 180.309 39.0671 181.227 41.8975C182.234 45.0056 182.146 46.9932 181.812 50.2434C181.593 52.3709 181.583 53.6724 180.644 55.594C179.834 57.2521 179.284 58.3078 177.744 59.3247C176.579 60.0939 175.597 59.8436 174.372 60.5121C173.228 61.1357 171.715 62.5282 171.715 62.5282L173.412 66.296C173.412 66.296 174.249 64.9385 174.994 64.2611Z" fill="#D9D9D9"/>
<path d="M103.191 181.172C103.168 179.815 102.418 177.098 101.537 175.195C99.9311 171.723 98.6048 169.805 96.1072 166.907C94.9062 165.514 94.1871 164.768 92.8546 163.499C90.3428 161.108 88.4276 159.585 85.5508 157.648C82.6901 155.723 79.5126 153.447 77.1293 153.149C77.3915 152.6 78.4285 151.745 79.9126 150.708C79.9126 150.708 85.9755 151.901 89.4089 153.735C93.1272 155.72 94.8407 157.395 97.7492 160.587C100.488 163.592 102.061 165.949 103.885 169.583C105.473 172.746 106.077 178.377 106.077 178.377C106.22 178.782 104.335 180.542 103.191 181.172Z" fill="url(#paint1_linear_295_224)"/>
<path d="M56.3228 104.207C56.3228 104.207 56.2658 102.728 56.0027 101.827C55.708 100.818 55.407 100.282 54.8244 99.4074C54.1668 98.42 53.5697 98.0458 52.7777 97.1625C50.4007 94.5111 46.8624 90.2231 46.8624 90.2231C46.8624 90.2231 46.5434 89.4089 46.7073 88.9257C46.8421 88.5285 47.0533 88.3463 47.3907 88.0972C47.6925 87.8743 47.8981 87.7647 48.2688 87.7077C48.7732 87.6301 49.0567 87.8382 49.5464 87.9817C51.7569 88.6295 54.2365 91.424 54.5673 91.0092L54.8017 90.59C54.8216 90.1608 52.8707 88.0113 51.996 86.1596C51.563 85.2431 51.2383 84.7421 51.0321 83.7497C50.8437 82.8425 50.3909 82.1354 50.9266 81.3794C51.2764 80.8859 51.6634 80.7127 52.2538 80.5806C52.7449 80.4707 53.0444 80.5592 53.5412 80.6401C56.2934 81.0885 57.3593 86.4291 58.2385 86.018C58.5125 85.8899 58.7545 85.8826 58.9021 85.6186C59.1364 85.1993 59.0261 83.5082 58.8461 82.1754C58.6082 80.4139 57.6078 79.5908 57.5424 77.8145C57.5208 77.2277 57.3974 76.8591 57.6118 76.3125C57.851 75.7025 58.0973 75.1786 58.7442 75.0746C59.268 74.9904 59.5549 75.2936 60.0118 75.5632C60.8292 76.0455 61.1016 76.5839 61.6491 77.3592C62.5147 78.5849 62.707 79.4569 63.2071 80.8717C63.9328 82.925 63.5001 84.3512 64.4612 86.3055C64.9131 87.2244 64.8412 88.4734 65.8641 88.5207C67.3661 88.5901 68.2124 84.3359 70.8029 84.0182C71.5523 83.9262 72.1424 83.6384 72.7341 84.1074C73.2958 84.5526 73.2143 85.142 73.2985 85.8537C73.5074 87.619 72.1708 88.3931 71.5982 90.0759C70.9884 91.8675 70.5972 92.8768 70.3071 94.747C70.0371 96.4878 70.0989 99.2531 70.0989 99.2531L59.7695 99.4209L56.3228 104.207Z" fill="#333333"/>
<path d="M57.5425 77.8144C57.608 79.5908 58.6084 80.4138 58.8463 82.1754C59.041 82.6145 59.0419 82.6154 59.2457 82.8389L59.2457 82.8389C59.4495 83.0625 59.5706 83.3434 59.8696 83.2978C60.1686 83.2523 60.2137 82.9538 60.3285 82.6739C60.591 82.0339 60.1959 81.5943 59.9787 80.9375C59.802 80.4032 59.5396 80.164 59.3944 79.6203C59.2628 79.1273 59.291 78.8306 59.2393 78.3229C59.1708 77.6501 59.2112 77.2642 59.1041 76.5964C59.0073 75.9934 59.3912 74.9706 58.7443 75.0745C58.0974 75.1785 57.8511 75.7025 57.6119 76.3124C57.3975 76.8591 57.5209 77.2276 57.5425 77.8144Z" fill="#D9D9D9"/>
<path d="M51.9961 86.1591C52.9896 87.926 53.7984 89.0386 53.7984 89.0386C53.7984 89.0386 54.1725 89.5307 54.6467 89.2928C55.265 88.9826 55.3295 88.2647 55.1553 87.5953C54.9511 87.0709 54.7849 86.7986 54.571 86.2781C54.3282 85.6872 54.2971 85.3101 53.9967 84.7463C53.5774 83.9593 53.014 83.7359 52.574 82.9603C52.2963 82.4708 52.4438 81.9754 51.9897 81.6431C51.6446 81.3904 51.4625 80.6229 50.9267 81.3789C50.391 82.1349 50.8438 82.842 51.0323 83.7492C51.2385 84.7416 51.4993 85.2756 51.9961 86.1591Z" fill="#D9D9D9"/>
<path d="M56.0027 101.827C56.2658 102.727 55.8634 103.39 56.3228 104.207C57.4512 106.216 60.0444 101.708 59.7695 99.4209C59.6167 98.1495 58.6588 97.7404 58.1818 96.552C57.9148 95.8869 58.012 95.404 57.6174 94.8057C57.2566 94.2588 56.9867 93.9195 56.3795 93.6733C55.418 93.2834 54.7918 94.4039 53.7748 94.1981C52.5415 93.9484 52.266 92.941 51.2892 92.1479C50.4034 91.4287 49.7926 91.1507 49.0081 90.3222C48.2695 89.5422 47.7281 87.8479 47.3907 88.0971C47.0533 88.3463 46.8421 88.5285 46.7073 88.9257C46.5433 89.4089 46.8624 90.2231 46.8624 90.2231C46.8624 90.2231 50.4006 94.511 52.7777 97.1625C53.5697 98.0458 54.1668 98.42 54.8244 99.4074C55.407 100.282 55.708 100.818 56.0027 101.827Z" fill="#D9D9D9"/>
<path d="M193.491 83.9557C192.933 85.103 192.145 86.9323 192.145 86.9323L197.064 93.1986L197.878 98.5061L192.948 105.157C192.948 105.157 195.199 104.879 196.63 104.635C198.034 104.395 198.868 104.407 200.206 103.921C202.872 102.955 204.093 101.636 205.978 99.517C208.768 96.3801 209.357 93.8119 210.569 89.7865C211.742 85.8918 212.118 79.4816 212.118 79.4816C212.118 79.4816 211.768 72.8982 208.688 71.4049C207.031 70.6013 205.796 70.614 203.996 70.9873C200.928 71.6236 199.979 73.8769 197.967 76.2792C195.739 78.938 195.008 80.8337 193.491 83.9557Z" fill="#424242"/>
<path d="M196.63 104.635C195.198 104.88 192.948 105.157 192.948 105.157C192.948 105.157 194.676 98.955 197.878 98.5062C199.583 98.2672 200.447 99.8576 202.148 99.5968C204.746 99.1988 205.427 97.0007 206.873 94.8065C208.026 93.0551 208.401 91.8967 209.094 89.9171C209.878 87.6747 210.21 86.6757 210.817 84.5657C211.383 82.5961 212.118 79.4817 212.118 79.4817C212.118 79.4817 211.742 85.892 210.569 89.7866C209.356 93.812 208.768 96.3802 205.978 99.5171C204.093 101.636 202.872 102.955 200.206 103.921C198.867 104.407 198.034 104.395 196.63 104.635Z" fill="#333333"/>
<path d="M193.491 83.9555C195.008 80.8335 195.739 78.9378 197.967 76.279C199.979 73.8767 200.929 71.6245 203.996 70.9871C205.797 70.6129 207.606 70.6496 208.688 71.4047C208.047 71.6346 208.253 71.274 206.974 71.7309C205.695 72.1878 204.431 72.5463 203.044 73.4992C201.37 74.6493 200.697 75.6625 199.491 77.297C198.198 79.0494 197.33 80.0588 196.767 82.1621C196.517 83.0953 196.489 83.6462 196.391 84.6074C196.052 87.9555 199.666 92.3819 197.064 93.1984C194.095 94.1299 192.145 86.9321 192.145 86.9321C192.145 86.9321 192.933 85.1028 193.491 83.9555Z" fill="#D9D9D9"/>
<path d="M104.942 179.897C103.155 174.833 102.737 173.496 100.576 169.886C98.3952 166.245 96.9204 164.292 93.9035 161.307C91.1413 158.573 89.4122 157.145 86.0517 155.194C83.1774 153.524 80.4994 152.369 78.2474 151.797C78.9743 150.63 79.451 150.507 79.7012 149.462C79.7886 149.097 79.8291 148.884 79.8204 148.509C79.7832 146.889 78.0067 146.716 77.1159 145.363C76.005 143.676 75.8085 142.494 74.9952 140.645C73.2363 136.645 72.4214 134.329 70.6706 130.326C69.1185 126.777 68.4557 124.678 66.5723 121.294C63.5404 115.845 59.4072 114.253 57.0408 108.484C56.5633 107.32 56.1198 106.695 55.9686 105.446C55.6331 102.672 57.0678 101.119 58.6381 98.809C59.7559 97.1642 60.3597 96.0319 62.1056 95.0797C64.1426 93.9688 65.8579 93.4827 68.0037 94.3652C70.4126 95.3557 70.0291 97.9317 71.7686 99.8702C73.7287 102.055 75.8251 102.293 77.5592 104.661C78.7088 106.23 78.7253 107.49 79.8109 109.105C81.7576 112.001 84.0092 112.614 86.3043 115.242C87.9272 117.1 88.8936 118.135 90.1288 120.27C91.0148 121.802 91.3436 122.752 92.035 124.381C93.3461 127.47 92.44 128.111 94.6083 131.674C95.6211 131.316 95.98 131.165 96.6221 130.28C98.0219 128.349 98.5064 127.069 99.7918 125.061C104.433 117.81 109.464 115.321 113.209 107.57C113.671 106.615 113.698 105.948 114.33 105.096C115.205 103.916 116.427 103.999 117.356 102.861C118.879 100.997 118.626 99.2968 118.989 96.9174C119.259 95.1527 118.918 94.1025 119.287 92.3561C119.729 90.2696 120.406 89.215 121.313 87.2847C122.064 85.6861 122.677 84.8857 123.434 83.2903C124.499 81.0484 124.438 79.4683 125.794 77.3894C126.982 75.5664 127.841 74.6028 129.595 73.3146C131.029 72.2612 131.927 71.7078 133.634 71.2058C135.646 70.6142 138.968 69.0244 138.968 69.0244L146.968 65.0244C146.968 65.0244 154.968 61.0244 155.968 60.0244C157.551 58.4416 162.445 53.067 164.468 54.0244C166.291 54.887 172.762 63.6353 173.468 65.5244C174.166 67.3921 164.468 74.5244 164.468 74.5244C164.468 74.5244 161.11 77.2975 160.468 78.5244C159.694 80.0043 154.968 83.2903 154.968 83.2903L151.447 85.758C151.447 85.758 149.115 87.3712 146.968 88.0244C145.245 88.549 143.968 92.3561 143.968 92.3561C143.098 96.9911 143.968 100.024 148.586 106.476C148.729 106.881 150.834 111.572 154.968 111.024C157.745 110.5 160.074 108.869 163.25 106.735C166.188 104.761 167.98 103.866 170.84 101.779C174.679 98.978 176.456 96.9329 180.146 93.9394C181.939 92.4854 182.722 91.3221 184.77 90.2578C186.258 89.4842 187.169 89.1188 188.821 88.8282C191.777 88.3084 192.075 84.8838 195.033 85.758C196.57 86.2123 197.63 86.2935 198.798 87.3907C200.088 88.6021 200.081 89.8453 200.704 91.5015C201.296 93.0738 201.678 93.9637 201.931 95.6243C202.144 97.0144 202.425 97.864 202.062 99.2227C201.725 100.489 201.083 101.023 200.346 102.106C198.047 105.488 196.165 107.116 193.077 109.91C189.122 113.49 186.534 115.093 182.008 117.917C180.123 119.092 178.983 119.613 177.098 120.788C173.402 123.091 172.38 122.999 169.448 126.221C167.749 128.089 166.123 130.79 164.259 132.494C162.462 134.137 160.725 134.31 159.022 136.05C156.823 138.298 159.451 137.266 154.446 142.448C149.958 147.097 148.893 151.242 143.591 154.935C142.672 155.575 142.127 155.889 141.172 156.472C140.006 157.183 139.32 157.527 138.145 158.223C134.888 160.152 131.008 161.881 129.947 163.394C130.044 163.802 130.145 164.019 130.304 164.407C131.613 167.59 142.63 160.68 150.632 161.334C152.128 161.456 152.948 161.913 154.445 161.811C156.537 161.668 157.429 160.29 159.509 160.024C161.817 159.729 163.272 159.802 165.431 160.668C167.332 161.43 168.45 162.093 169.696 163.718C171.024 165.448 171.031 166.868 171.555 168.985C172.005 170.806 172.668 171.884 172.317 173.727C172.018 175.302 171.603 176.29 170.411 177.361C169.1 178.539 167.745 178.101 166.157 178.862C164.688 179.566 164.024 180.252 162.594 181.031C161.333 181.717 160.7 182.361 159.293 182.651C158.254 182.865 157.632 182.588 156.577 182.698C154.983 182.864 154.107 183.151 152.585 183.651C150.666 184.282 149.802 185.195 147.866 185.772C146.65 186.135 145.927 186.175 144.685 186.439C141.296 187.16 139.482 188.167 136.022 188.357C134.777 188.425 134.069 188.478 132.829 188.345C131.556 188.208 130.865 187.969 129.624 187.654C128.112 187.269 127.315 186.869 125.799 186.498C122.52 185.695 120.517 186.155 117.22 185.425C115.63 185.072 114.712 184.928 113.193 184.34C110.578 183.329 108.621 182.917 107.081 180.575C106.8 180.148 106.9 179.671 106.449 179.431C105.926 179.152 105.534 179.859 104.942 179.897Z" fill="url(#paint2_linear_295_224)"/>
<path d="M143.653 79.544C141.446 78.4066 137.505 77.6561 137.505 77.6561C137.505 77.6561 138.915 77.6097 139.813 77.6534C141.885 77.7543 142.966 78.1246 144.68 79.1818C146.387 80.235 147.919 82.6373 147.919 82.6373C147.919 82.6373 145.5 80.4953 143.653 79.544Z" fill="#424242"/>
<path d="M114.329 105.095C113.698 105.947 113.671 106.614 113.209 107.569C109.463 115.32 104.432 117.809 99.7915 125.06C98.506 127.068 98.0216 128.348 96.6217 130.278C95.9796 131.164 94.608 131.672 94.608 131.672C94.608 131.672 94.8903 133.853 94.465 135.14C93.5137 138.019 87.8757 139.06 88.0185 139.465C89.539 143.772 94.4973 136.465 98.4564 134.187C100.838 132.816 102.226 132.112 104.438 130.481C108.395 127.564 110.393 125.528 113.387 121.629C116.824 117.153 119.359 114.504 120.299 108.939C121.085 104.282 119.352 94.5366 118.989 96.9161C118.625 99.2955 118.879 100.995 117.356 102.859C116.426 103.997 115.204 103.914 114.329 105.095Z" fill="url(#paint3_linear_295_224)"/>
<path d="M94.6084 131.674C92.44 128.111 93.3461 127.47 92.0351 124.381C90.7241 121.293 92.4444 128.098 91.8679 130.363C91.4433 132.031 90.937 132.896 90.1042 134.402C89.203 136.032 88.0187 139.466 88.0187 139.466C88.0187 139.466 90.3158 138.749 91.3908 138.048C92.636 137.236 93.7392 137.008 94.4055 135.617C95.0383 134.296 94.6084 131.674 94.6084 131.674Z" fill="url(#paint4_linear_295_224)"/>
<path d="M150.968 111.024C149.813 103.232 145.63 97.635 146.5 93C147.769 91.721 149.5 89 149.5 89C149.5 89 153.468 85.5244 154.468 84.5244C157.676 81.3164 171.968 68.7315 171.968 68.0244C171.968 66.5244 171.968 67.0244 170.968 67.0244C169.968 67.0244 167.968 69.5244 167.968 69.5244L164.468 72.5244L161.468 76.0244L154.968 81.5244C154.968 81.5244 148.799 85.5298 145.968 87.1027C143.667 88.3817 143.435 90.0754 142.468 92.5244C141.271 95.5596 142.603 97.6119 143.796 100.649C144.874 103.39 149.336 110.917 150.968 111.024Z" fill="#424242"/>
<path d="M109.954 160.123L109.539 161.113C109.539 161.113 112.913 160.571 115.008 159.957C117.115 159.341 118.376 159.086 120.266 157.968C122.755 156.495 123.323 154.607 125.623 152.853C127.036 151.775 129.421 150.345 129.421 150.345C129.421 150.345 123.595 150.427 122.182 151.505C119.882 153.258 119.315 155.147 116.825 156.62C114.935 157.738 113.674 157.992 111.567 158.609C109.954 160.123 109.954 160.123 109.954 160.123Z" fill="#A9A9A9"/>
<path d="M106.449 179.431C106.9 179.671 106.8 180.149 107.081 180.575C108.621 182.918 110.578 183.329 113.193 184.341C114.712 184.928 115.63 185.073 117.22 185.425C120.517 186.155 122.52 185.695 125.799 186.498C127.315 186.869 128.112 187.269 129.624 187.654C130.865 187.969 131.556 188.209 132.829 188.345C134.069 188.478 134.777 188.426 136.022 188.357C139.482 188.168 141.296 187.161 144.685 186.44C145.927 186.175 146.65 186.135 147.866 185.772C149.802 185.195 150.666 184.283 152.585 183.652C154.108 183.151 154.983 182.865 156.577 182.699C157.632 182.589 158.254 182.866 159.293 182.651C160.7 182.361 161.333 181.718 162.594 181.031C164.024 180.252 164.688 179.567 166.157 178.863C167.745 178.101 169.1 178.539 170.411 177.362C171.603 176.29 172.018 175.302 172.317 173.728C172.668 171.885 172.005 170.806 171.555 168.985C171.104 167.164 163.392 171.54 158.031 172.619C151.287 173.975 147.404 174.256 140.539 174.691C133.814 175.116 130.014 175.231 123.286 174.857C115.682 174.433 104.369 164.737 103.947 172.341L106.449 179.431Z" fill="#A9A9A9"/>
<path d="M201.931 95.6245C201.678 93.9639 200.704 91.5018 200.704 91.5018C197.9 87.9603 195.473 96.2317 192.006 99.127C188.869 101.746 187.13 103.245 183.831 105.656C181.17 107.601 179.109 107.999 176.849 110.398C175.042 112.315 174.926 114.095 173.143 116.034C170.013 119.436 167.189 120.187 162.99 122.122C159.409 123.771 157.188 124.169 153.47 125.481C150.543 126.514 148.802 126.844 145.975 128.126C143.576 129.214 141.339 129.056 140.053 131.355C139.026 133.191 126.364 139.197 126.953 141.216C127.629 143.535 128.911 144.614 130.909 145.971C134.418 148.354 149.441 147.632 154.446 142.449C159.451 137.266 156.823 138.298 159.022 136.05C160.724 134.31 162.462 134.137 164.259 132.494C166.123 130.79 167.748 128.089 169.448 126.221C172.38 123 173.402 123.092 177.098 120.788C178.983 119.613 180.123 119.092 182.007 117.917L182.139 117.835C186.585 115.062 189.16 113.456 193.077 109.91C196.165 107.116 198.037 105.573 200.346 102.106C201.073 101.016 201.724 100.489 202.062 99.2229C202.424 97.8642 202.143 97.0146 201.931 95.6245Z" fill="#A9A9A9"/>
<path d="M98.5032 157.614L99.0698 158.26C99.0698 158.26 104.189 154.706 107.239 152.139C112.934 147.346 115.096 143.572 120.442 138.393C123.335 135.59 125.101 134.169 127.99 131.361C132.23 127.24 135.24 125.401 138.516 120.479C141.458 116.057 144.113 108.085 144.113 108.085L143.546 107.439C143.546 107.439 140.891 115.411 137.949 119.833C134.674 124.755 131.664 126.594 127.423 130.715C124.534 133.523 122.769 134.944 119.875 137.747C114.529 142.926 112.367 146.7 106.673 151.493C103.623 154.06 98.5032 157.614 98.5032 157.614Z" fill="url(#paint5_linear_295_224)"/>
<path d="M79.6415 149.939C79.6415 149.939 79.8119 149.192 79.8107 148.74C79.8084 147.83 79.6972 147.905 79.4628 147.496C78.9744 146.757 78.1763 146.636 77.5326 145.9C77.1308 145.44 76.9439 145.147 76.6271 144.625C76.0597 143.689 75.9249 143.069 75.4953 142.063C74.7039 140.21 74.3322 139.141 73.5772 137.273C72.9165 135.637 72.5555 134.717 71.8736 133.09C70.9632 130.919 70.39 129.728 69.4671 127.561C68.9072 126.247 68.0493 124.189 68.0493 124.189C68.3013 123.686 68.6004 123.491 69.0503 123.153C70.856 121.796 72.8026 122.394 74.8292 123.391C77.1145 124.516 77.6083 126.333 78.7251 128.622C80.1713 131.587 79.7253 133.674 80.5 136.88C81.9011 142.678 84.7648 151.548 84.7648 151.548L82.0959 150.44L79.6415 149.939Z" fill="#A9A9A9"/>
<path d="M105.973 179.371C105.973 179.371 102.259 166.658 96.7754 160.408C91.4973 154.392 79.5989 149.818 79.5989 149.818C79.6775 149.587 79.7138 149.454 79.7637 149.213C79.7637 149.213 91.8438 153.83 97.2041 159.687C103.015 166.035 106.449 179.431 106.449 179.431C106.264 179.334 106.162 179.337 105.973 179.371Z" fill="url(#paint6_linear_295_224)"/>
<path d="M105.973 179.371C105.973 179.371 102.259 166.658 96.7754 160.408C91.4973 154.392 79.5989 149.818 79.5989 149.818C79.6775 149.587 79.7138 149.454 79.7637 149.213C79.7637 149.213 91.8438 153.83 97.2041 159.687C103.015 166.035 106.449 179.431 106.449 179.431C106.264 179.334 106.162 179.337 105.973 179.371Z" fill="url(#paint7_linear_295_224)"/>
<path d="M117.15 169.732L117.007 169.327C117.007 169.327 120.74 166.021 123.656 164.93C126.036 164.04 130.066 163.807 130.066 163.807C130.217 164.195 130.16 164.036 130.221 164.208C130.221 164.208 126.047 164.456 123.596 165.407C120.77 166.504 117.15 169.732 117.15 169.732Z" fill="url(#paint8_linear_295_224)"/>
<path d="M76.5333 218.466C73.6829 218.839 71.996 218.7 69.1339 218.154C66.4371 217.639 64.9505 217.053 62.4148 215.896C58.8357 214.263 56.9127 212.986 53.8648 210.387C50.9235 207.878 49.4697 206.166 47.1608 203.008C44.6418 199.562 43.3234 197.461 41.7447 193.469C40.4872 190.289 39.9759 188.393 39.4474 185.022C39.1313 183.006 38.9094 181.852 38.981 179.827C39.0499 177.877 39.233 176.776 39.7567 174.925C41.0935 170.199 43.4072 168.219 46.6283 164.704C48.3043 162.876 49.3552 161.958 51.2567 160.391C53.2187 158.774 54.3113 157.816 56.5194 156.585C59.6757 154.826 61.6112 153.723 65.2297 153.512C68.1654 153.34 69.878 153.852 72.7323 154.762C75.2806 155.574 76.6942 156.22 78.9967 157.667C81.8493 159.461 83.1053 161.028 85.5707 163.387C88.6006 166.286 90.4121 167.859 92.9092 171.273C96.521 176.21 99.1173 179.28 99.9306 185.361C100.356 188.539 100.217 190.41 99.6175 193.511C99.142 195.97 98.6101 197.285 97.6531 199.564C95.6258 204.39 94.0358 207.054 90.4031 210.648C85.9401 215.064 82.7035 217.658 76.5333 218.466Z" fill="url(#paint9_linear_295_224)"/>
<path d="M87.4111 210.561L100.114 194.918C100.114 194.918 101.316 197.852 101.15 199.791C100.963 201.979 100.11 203.12 98.8621 204.926C97.6462 206.686 96.7649 207.606 94.9894 208.799C92.6913 210.342 87.4111 210.561 87.4111 210.561Z" fill="#A9A9A9"/>
<path d="M48.6729 166.105C48.6729 166.105 48.6609 161.473 49.0947 160.074C49.4639 158.883 49.859 158.259 50.6081 157.262C51.7876 155.692 52.756 154.985 54.4926 154.069C55.7538 153.403 56.5366 153.127 57.9362 152.854C59.8636 152.477 66.678 153.869 66.678 153.869L48.6729 166.105Z" fill="#A9A9A9"/>
<g filter="url(#filter0_f_295_224)">
<path d="M51.3754 160.635L50.4212 159.96C50.4212 159.96 51.5051 158.587 52.2792 157.786C53.3349 156.695 53.9855 156.136 55.1983 155.239C55.7835 154.805 56.0246 154.326 56.7372 154.19C57.4339 154.056 58.5402 154.565 58.5402 154.565C58.5402 154.565 56.6076 155.761 55.4624 156.663C53.7208 158.035 51.3754 160.635 51.3754 160.635Z" fill="#62635E" fill-opacity="0.5"/>
</g>
<path d="M78.6414 214.112C75.8039 214.522 74.132 214.425 71.3016 213.969C68.6346 213.539 67.1707 213.017 64.6768 211.978C61.1567 210.513 59.2736 209.349 56.3006 206.961C53.4316 204.658 52.0232 203.074 49.7953 200.146C47.3647 196.951 46.0986 194.998 44.6127 191.268C43.4291 188.298 42.9602 186.521 42.5042 183.356C42.2314 181.463 42.0347 180.381 42.147 178.471C42.2552 176.633 42.4594 175.591 43.0171 173.836C44.4406 169.356 46.7781 167.443 50.0477 164.066C51.7489 162.309 52.8109 161.423 54.7307 159.908C56.7116 158.344 57.8158 157.419 60.0332 156.215C63.2026 154.492 65.1466 153.414 68.7434 153.141C71.6615 152.92 73.3513 153.367 76.1666 154.166C78.68 154.879 80.0702 155.459 82.3266 156.776C85.1222 158.408 86.3372 159.858 88.7367 162.031C91.6857 164.701 93.4521 166.146 95.8616 169.312C99.3467 173.89 101.862 176.729 102.545 182.443C102.902 185.428 102.727 187.194 102.068 190.128C101.546 192.455 100.991 193.705 99.9946 195.871C97.8835 200.46 96.2506 203.003 92.5708 206.463C88.0498 210.715 84.7836 213.225 78.6414 214.112Z" fill="url(#paint10_linear_295_224)"/>
<path d="M51.2183 180.433C52.4672 183.977 52.9917 185.211 54.7256 187.946C56.7112 191.078 58.2038 192.62 60.9304 195.134C63.5798 197.576 65.2929 198.715 68.3641 200.599C72.65 203.229 74.879 204.123 78.6673 204.897C81.3444 205.444 83.4788 204.144 85.5447 202.356C88.2082 200.05 88.8129 199.521 91.087 196.692C92.9024 194.434 95.1991 190.516 95.1991 190.516C95.1991 190.516 96.9186 187.141 96.3173 185.045C94.781 179.688 91.0909 174.898 85.7634 170.172C80.2037 165.239 78.5876 163.443 68.8207 161.886C63.9756 161.992 55.5042 167.367 52.2935 175.171C51.6203 176.808 50.6301 178.764 51.2183 180.433Z" fill="url(#paint11_linear_295_224)"/>
<path d="M57.6838 192.864C60.2682 195.759 62.1355 197.255 65.3234 199.468C68.4189 201.617 70.2423 202.851 73.8139 204.053C75.0885 204.482 77.1382 204.952 77.1382 204.952C77.1382 204.952 70.984 195.157 69.6258 188.069C68.1276 180.251 70.9325 167.727 70.9325 167.727L62.2654 165.079C62.2654 165.079 51.6894 176.919 51.8708 182.687C51.9292 184.546 52.8445 186.148 54.0383 188.173C55.2124 190.164 56.1446 191.14 57.6838 192.864Z" fill="url(#paint12_linear_295_224)"/>
<path fill-rule="evenodd" clip-rule="evenodd" d="M54.0115 188.162C52.2154 185.313 51.6725 184.026 50.3807 180.333C49.8395 178.786 50.5939 177.002 51.2599 175.425C51.3428 175.229 51.4242 175.036 51.5018 174.847C54.8412 166.707 63.6362 161.095 68.6635 160.98C78.3132 162.516 80.2913 164.286 85.437 168.888L86.2333 169.599C91.7557 174.521 95.5792 179.51 97.1674 185.093C97.7893 187.278 96.0015 190.799 96.0015 190.799C96.0015 190.799 93.6146 194.885 91.7286 197.241C89.366 200.192 88.7384 200.745 85.9723 203.151C83.8271 205.018 81.6112 206.375 78.8342 205.808C74.9042 205.004 72.5925 204.075 68.1486 201.338C64.9644 199.377 63.188 198.191 60.4417 195.648C57.6155 193.031 56.0687 191.424 54.0115 188.162ZM54.7258 187.946C52.992 185.211 52.4676 183.976 51.2185 180.432C50.6957 178.948 51.4204 177.238 52.0607 175.726C52.1404 175.538 52.219 175.352 52.2937 175.171C55.5047 167.366 63.9759 161.992 68.821 161.886C78.1231 163.369 80.0321 165.068 84.9958 169.488C85.2436 169.709 85.499 169.936 85.7636 170.171C91.0912 174.898 94.7812 179.688 96.3175 185.044C96.9189 187.141 95.1993 190.516 95.1993 190.516C95.1993 190.516 92.9027 194.433 91.0872 196.692C88.813 199.52 88.2085 200.05 85.5449 202.356C83.479 204.144 81.3447 205.444 78.6675 204.897C74.8793 204.122 72.6503 203.228 68.3643 200.599C65.2933 198.714 63.5802 197.575 60.9306 195.133C58.2043 192.62 56.7117 191.077 54.7258 187.946Z" fill="url(#paint13_linear_295_224)"/>
<path d="M143.653 79.544C141.446 78.4066 137.505 77.6561 137.505 77.6561C137.505 77.6561 138.915 77.6097 139.813 77.6534C141.885 77.7543 142.966 78.1246 144.68 79.1818C146.387 80.235 147.919 82.6373 147.919 82.6373C147.919 82.6373 145.5 80.4953 143.653 79.544Z" fill="#424242"/>
<defs>
<filter id="filter0_f_295_224" x="46.4211" y="150.167" width="16.1191" height="14.4683" filterUnits="userSpaceOnUse" color-interpolation-filters="sRGB">
<feFlood flood-opacity="0" result="BackgroundImageFix"/>
<feBlend mode="normal" in="SourceGraphic" in2="BackgroundImageFix" result="shape"/>
<feGaussianBlur stdDeviation="2" result="effect1_foregroundBlur_295_224"/>
</filter>
<linearGradient id="paint0_linear_295_224" x1="80.0699" y1="158.899" x2="104.709" y2="180.956" gradientUnits="userSpaceOnUse">
<stop stop-color="#A9A9A9"/>
<stop offset="1" stop-color="#333333"/>
</linearGradient>
<linearGradient id="paint1_linear_295_224" x1="81.1421" y1="158.065" x2="104.614" y2="179.395" gradientUnits="userSpaceOnUse">
<stop stop-color="#D9D9D9"/>
<stop offset="1" stop-color="#A9A9A9"/>
</linearGradient>
<linearGradient id="paint2_linear_295_224" x1="70.4799" y1="131.076" x2="211.475" y2="109.113" gradientUnits="userSpaceOnUse">
<stop stop-color="#424242"/>
<stop offset="1" stop-color="#A9A9A9"/>
</linearGradient>
<linearGradient id="paint3_linear_295_224" x1="70.4798" y1="131.076" x2="211.474" y2="109.113" gradientUnits="userSpaceOnUse">
<stop stop-color="#424242"/>
<stop offset="1" stop-color="#A9A9A9"/>
</linearGradient>
<linearGradient id="paint4_linear_295_224" x1="70.4799" y1="131.076" x2="211.475" y2="109.113" gradientUnits="userSpaceOnUse">
<stop stop-color="#424242"/>
<stop offset="1" stop-color="#A9A9A9"/>
</linearGradient>
<linearGradient id="paint5_linear_295_224" x1="117.415" y1="137.137" x2="120.545" y2="140.118" gradientUnits="userSpaceOnUse">
<stop stop-color="#424242"/>
<stop offset="1" stop-color="#A9A9A9"/>
</linearGradient>
<linearGradient id="paint6_linear_295_224" x1="97.3944" y1="166.681" x2="100.814" y2="164.107" gradientUnits="userSpaceOnUse">
<stop stop-color="#D48845"/>
<stop offset="1" stop-color="#4E3219"/>
</linearGradient>
<linearGradient id="paint7_linear_295_224" x1="82.3224" y1="151.726" x2="81.1906" y2="149.164" gradientUnits="userSpaceOnUse">
<stop stop-color="#D9D9D9"/>
<stop offset="1" stop-color="#424242"/>
</linearGradient>
<linearGradient id="paint8_linear_295_224" x1="117.686" y1="169.315" x2="129.998" y2="163.448" gradientUnits="userSpaceOnUse">
<stop stop-color="#A9A9A9"/>
<stop offset="1" stop-color="#333333"/>
</linearGradient>
<linearGradient id="paint9_linear_295_224" x1="72.5585" y1="217.657" x2="63.3152" y2="166.933" gradientUnits="userSpaceOnUse">
<stop stop-color="#A9A9A9"/>
<stop offset="1" stop-color="#333333"/>
</linearGradient>
<linearGradient id="paint10_linear_295_224" x1="79.5649" y1="214.273" x2="67.497" y2="176.847" gradientUnits="userSpaceOnUse">
<stop stop-color="#D9D9D9"/>
<stop offset="1" stop-color="#333333"/>
</linearGradient>
<linearGradient id="paint11_linear_295_224" x1="52.4901" y1="178.5" x2="95.6383" y2="186.221" gradientUnits="userSpaceOnUse">
<stop stop-color="#424242"/>
<stop offset="0.390625" stop-color="#424242"/>
<stop offset="0.970597" stop-color="#424242"/>
</linearGradient>
<linearGradient id="paint12_linear_295_224" x1="77.8217" y1="202.68" x2="58.4469" y2="181.619" gradientUnits="userSpaceOnUse">
<stop stop-color="#A9A9A9"/>
<stop offset="1" stop-color="#404040" stop-opacity="0.78"/>
</linearGradient>
<linearGradient id="paint13_linear_295_224" x1="50.2623" y1="178.526" x2="96.9837" y2="188.073" gradientUnits="userSpaceOnUse">
<stop stop-color="#5B5C59"/>
<stop offset="1" stop-color="#3F403E"/>
</linearGradient>
</defs>
</svg>
