<svg width="153" height="344" viewBox="0 0 153 344" fill="none" xmlns="http://www.w3.org/2000/svg">
<path d="M84.9417 23.0268C84.9417 4.1768 68.0585 4.28887 68.0585 23.585C65.1032 56.2868 58.8022 88.5591 49.265 119.843C37.0546 153.304 0 151.408 0 171.15C0 186.988 28.454 184.646 43.6373 215.765C57.9712 244.877 67.7397 314.588 67.7397 325.966C67.7397 328.361 68.6466 330.66 70.2596 332.354C71.8725 334.048 74.06 335 76.3408 335C78.6216 335 80.809 334.048 82.422 332.354C84.0349 330.66 84.9417 328.361 84.9417 325.966C84.9417 325.966 88.1257 247.889 102.354 218.665C117.537 187.546 153 186.988 153 171.15C153 149.735 115.839 158.77 103.735 119.843C94.872 88.188 88.5847 55.7994 84.9417 23.0268Z" fill="#FBE770"/>
</svg>
