<svg width="153" height="326" viewBox="0 0 153 326" fill="none" xmlns="http://www.w3.org/2000/svg">
<path d="M84.9417 14.0268C84.9417 -4.8232 68.0585 -4.71113 68.0585 14.585C65.1032 47.2868 58.8022 79.5591 49.265 110.843C37.0546 144.304 0 142.408 0 162.15C0 177.988 28.454 175.646 43.6373 206.765C57.9712 235.877 67.7397 305.588 67.7397 316.966C67.7397 319.361 68.6466 321.66 70.2596 323.354C71.8725 325.048 74.06 326 76.3408 326C78.6216 326 80.809 325.048 82.422 323.354C84.0349 321.66 84.9417 319.361 84.9417 316.966C84.9417 316.966 88.1257 238.889 102.354 209.665C117.537 178.546 153 177.988 153 162.15C153 140.735 115.839 149.77 103.735 110.843C94.872 79.188 88.5847 46.7994 84.9417 14.0268Z" fill="#FFF9F4"/>
</svg>
