<svg width="294" height="346" viewBox="0 0 294 346" fill="none" xmlns="http://www.w3.org/2000/svg">
<path d="M3.14384 35.3634C0.33434 17.7803 13.9175 1.85449 31.7236 1.85449L166.182 1.85449C180.403 1.85449 192.518 12.1868 194.762 26.2302L240.211 310.672C243.021 328.255 229.437 344.181 211.631 344.181H77.173C62.9515 344.181 50.8372 333.848 48.5933 319.805L3.14384 35.3634Z" fill="#D9D9D9"/>
<path d="M240.211 310.672L238.425 310.957L240.211 310.672ZM194.762 26.2302L192.975 26.5156L194.762 26.2302ZM31.7236 3.66339L166.182 3.66339V0.0455978L31.7236 0.0455978V3.66339ZM192.975 26.5156L238.425 310.957L241.997 310.386L196.548 25.9448L192.975 26.5156ZM211.631 342.372H77.173V345.99H211.631V342.372ZM50.3795 319.519L4.93008 35.078L1.35761 35.6488L46.807 320.09L50.3795 319.519ZM77.173 342.372C63.8403 342.372 52.4832 332.685 50.3795 319.519L46.807 320.09C49.1912 335.011 62.0626 345.99 77.173 345.99V342.372ZM238.425 310.957C241.059 327.441 228.325 342.372 211.631 342.372V345.99C230.55 345.99 244.982 329.068 241.997 310.386L238.425 310.957ZM166.182 3.66339C179.515 3.66339 190.872 13.3499 192.975 26.5156L196.548 25.9448C194.164 11.0237 181.292 0.0455978 166.182 0.0455978V3.66339ZM31.7236 0.0455978C12.8046 0.0455978 -1.62749 16.9668 1.35761 35.6488L4.93008 35.078C2.29617 18.5939 15.0304 3.66339 31.7236 3.66339V0.0455978Z" fill="black"/>
<path d="M119.517 28.7729L128.237 28.773" stroke="black" stroke-width="3.61779" stroke-linejoin="round"/>
<path d="M60.4197 28.7729H105.63" stroke="black" stroke-width="3.61779" stroke-linejoin="round"/>
<path d="M24.8984 54.5479H217.976L257.059 298.956H63.9814L24.8984 54.5479Z" fill="white" stroke="black" stroke-width="3.61779"/>
<path d="M157.921 89.8149L56.3684 89.8149L54.1971 77.2704L155.499 77.2704L157.921 89.8149Z" fill="#D9D9D9"/>
<path d="M202.147 117.776L100.594 117.776L98.4228 105.232L199.725 105.232L202.147 117.776Z" fill="#D9D9D9"/>
<path d="M157.921 89.8149L56.3684 89.8149L54.1971 77.2704L155.499 77.2704L157.921 89.8149Z" stroke="black" stroke-width="3.61779"/>
<path d="M202.147 117.776L100.594 117.776L98.4228 105.232L199.725 105.232L202.147 117.776Z" stroke="black" stroke-width="3.61779"/>
<path d="M226.106 274.987L124.553 274.987L122.381 262.443L223.684 262.443L226.106 274.987Z" fill="#D9D9D9" stroke="black" stroke-width="3.61779"/>
<path d="M258.106 213.428L101.967 213.428C87.8409 213.428 75.7864 203.214 73.4677 189.28C70.5379 171.672 84.117 155.647 101.967 155.647L258.106 155.647C272.168 155.647 284.188 165.772 286.577 179.631C289.62 197.288 276.023 213.428 258.106 213.428Z" fill="black" stroke="black" stroke-width="3.21853"/>
<path d="M112.461 188.398L107.392 192.013L105.437 188.644L112.336 186.044L116.331 184.538L112.336 183.032L105.437 180.432L107.392 177.063L112.461 180.678L115.35 182.739L114.997 179.208L114.415 173.381L118.585 173.381L118.083 179.231L117.786 182.701L120.621 180.678L125.672 177.076L127.563 180.43L120.74 183.035L116.801 184.538L120.74 186.041L127.563 188.646L125.672 192L120.621 188.398L117.786 186.375L118.083 189.845L118.585 195.695L114.415 195.695L114.997 189.868L115.35 186.337L112.461 188.398Z" fill="white" stroke="white" stroke-width="3.21853"/>
<path d="M154.809 188.397L149.74 192.013L147.784 188.644L154.684 186.043L158.679 184.538L154.684 183.032L147.784 180.431L149.74 177.062L154.809 180.678L157.697 182.738L157.344 179.208L156.762 173.381L160.932 173.381L160.431 179.23L160.134 182.7L162.969 180.678L168.019 177.075L169.911 180.43L163.087 183.034L159.148 184.538L163.087 186.041L169.911 188.645L168.019 192L162.969 188.397L160.134 186.375L160.431 189.845L160.932 195.694L156.762 195.694L157.344 189.867L157.697 186.337L154.809 188.397Z" fill="white" stroke="white" stroke-width="3.21853"/>
<path d="M197.156 188.397L192.087 192.013L190.132 188.644L197.031 186.043L201.026 184.538L197.031 183.032L190.132 180.431L192.087 177.062L197.156 180.678L200.045 182.738L199.692 179.208L199.109 173.381L203.279 173.381L202.778 179.23L202.481 182.7L205.316 180.678L210.367 177.075L212.258 180.43L205.435 183.034L201.496 184.538L205.435 186.041L212.258 188.645L210.367 192L205.316 188.397L202.481 186.375L202.778 189.845L203.279 195.694L199.109 195.694L199.692 189.867L200.045 186.337L197.156 188.397Z" fill="white" stroke="white" stroke-width="3.21853"/>
<path d="M239.504 188.397L234.435 192.013L232.48 188.644L239.379 186.043L243.375 184.538L239.379 183.032L232.48 180.431L234.435 177.062L239.504 180.678L242.393 182.738L242.04 179.208L241.458 173.381L245.628 173.381L245.127 179.23L244.829 182.7L247.665 180.678L252.715 177.075L254.607 180.43L247.783 183.034L243.844 184.538L247.783 186.041L254.607 188.645L252.715 192L247.665 188.397L244.829 186.375L245.127 189.845L245.628 195.694L241.458 195.694L242.04 189.867L242.393 186.337L239.504 188.397Z" fill="white" stroke="white" stroke-width="3.21853"/>
</svg>