<svg width="65" height="65" viewBox="0 0 65 65" fill="none" xmlns="http://www.w3.org/2000/svg">
<path d="M64.3558 52.1782L44.6525 32.475L64.3558 12.7718C64.7333 12.3896 64.945 11.874 64.945 11.3368C64.945 10.7996 64.7333 10.2841 64.3558 9.90192L55.0481 0.594236C54.6675 0.213747 54.1513 0 53.6132 0C53.075 0 52.5588 0.213747 52.1782 0.594236L32.475 20.2975L12.7718 0.594236C12.3912 0.213747 11.875 0 11.3368 0C10.7987 0 10.2825 0.213747 9.90192 0.594236L0.594236 9.90192C0.213747 10.2825 0 10.7987 0 11.3368C0 11.875 0.213747 12.3912 0.594236 12.7718L20.2975 32.475L0.594236 52.1782C0.213747 52.5588 0 53.075 0 53.6132C0 54.1513 0.213747 54.6675 0.594236 55.0481L9.90192 64.3558C10.2825 64.7363 10.7987 64.95 11.3368 64.95C11.875 64.95 12.3912 64.7363 12.7718 64.3558L32.475 44.6525L52.1782 64.3558C52.5588 64.7363 53.075 64.95 53.6132 64.95C54.1513 64.95 54.6675 64.7363 55.0481 64.3558L64.3558 55.0481C64.7363 54.6675 64.95 54.1513 64.95 53.6132C64.95 53.075 64.7363 52.5588 64.3558 52.1782Z" fill="#FF5B4F"/>
</svg>
