<svg width="21" height="21" viewBox="0 0 21 21" fill="none" xmlns="http://www.w3.org/2000/svg">
<path d="M4.20031 5.26733H3.13354C2.56769 5.26733 2.02502 5.49212 1.6249 5.89223C1.22478 6.29235 1 6.83502 1 7.40087V17.0018C1 17.5676 1.22478 18.1103 1.6249 18.5104C2.02502 18.9106 2.56769 19.1353 3.13354 19.1353H12.7345C13.3003 19.1353 13.843 18.9106 14.2431 18.5104C14.6432 18.1103 14.868 17.5676 14.868 17.0018V15.935" stroke="white" stroke-width="2" stroke-linecap="round" stroke-linejoin="round"/>
<path d="M13.8012 3.13365L17.0015 6.33396M18.479 4.82448C18.8991 4.40434 19.1352 3.8345 19.1352 3.24033C19.1352 2.64616 18.8991 2.07632 18.479 1.65618C18.0589 1.23603 17.489 1 16.8948 1C16.3007 1 15.7308 1.23603 15.3107 1.65618L6.33383 10.601V13.8013H9.53414L18.479 4.82448Z" stroke="white" stroke-width="2" stroke-linecap="round" stroke-linejoin="round"/>
</svg>
