<svg width="153" height="109" viewBox="0 0 153 109" fill="none" xmlns="http://www.w3.org/2000/svg">
<path d="M53.6421 109H0V37.7554C0 25.8772 12.74 1.51601 41.3491 0.169658C54.3872 -1.1393 81.6925 4.54531 86.6097 37.7554L86.266 35.6737L75.8131 29.6449C72.06 19.0946 89.3244 0.169656 114.095 0.254998C139.616 0.169656 152.377 18.3412 152.377 37.7554V109H112.495V39.4384C111.564 37.5684 109.031 34.9505 106.349 39.4384V109H60.9062C62.21 93.6665 59.3416 57.7264 37.4377 36.6335C35.2027 36.0725 31.2912 36.2969 33.5263 41.6823C41.7217 49.723 57.2183 74.4435 53.6421 109Z" fill="white"/>
</svg>
