<svg width="22" height="22" viewBox="0 0 22 22" fill="none" xmlns="http://www.w3.org/2000/svg">
<path d="M18.9135 2.27913C18.4722 1.82808 17.819 1.66125 17.2099 1.83779L3.00762 5.94137C2.36503 6.11967 1.90957 6.62898 1.78687 7.2751C1.66153 7.93358 2.09934 8.77036 2.67132 9.1199L7.11208 11.8315C7.56754 12.1104 8.1554 12.0407 8.53231 11.6629L13.6174 6.57778C13.8734 6.31209 14.2971 6.31209 14.5531 6.57778C14.809 6.83288 14.809 7.24862 14.5531 7.51342L9.45912 12.5985C9.08133 12.9763 9.01072 13.5624 9.28876 14.0188L12.0021 18.4763C12.3199 19.005 12.8671 19.306 13.4674 19.306C13.538 19.306 13.6174 19.306 13.688 19.2963C14.3765 19.2089 14.9238 18.7402 15.1268 18.0782L19.3372 3.9827C19.5225 3.38248 19.3548 2.7293 18.9135 2.27913Z" fill="#FCFAF9"/>
<path opacity="0.4" fill-rule="evenodd" clip-rule="evenodd" d="M7.40665 16.8986C7.66531 16.6412 8.08467 16.6409 8.34318 16.8986C8.60074 17.1571 8.60056 17.5765 8.34318 17.8351L7.13712 19.0402C7.00829 19.1699 6.83878 19.2345 6.66935 19.2345C6.4999 19.2345 6.33044 19.1699 6.20158 19.0402C5.94295 18.7815 5.94295 18.3633 6.20158 18.1046L7.40665 16.8986ZM6.71427 13.5568C6.97287 13.2993 7.39224 13.2993 7.6508 13.5568C7.90845 13.8153 7.90828 14.2347 7.6508 14.4933L6.44474 15.6984C6.31587 15.8281 6.14644 15.8927 5.97697 15.8927C5.80755 15.8927 5.63802 15.8281 5.50919 15.6984C5.25073 15.4397 5.25063 15.0214 5.50919 14.7628L6.71427 13.5568ZM3.39396 12.5031C3.65255 12.2454 4.07185 12.2454 4.33048 12.5031C4.58823 12.7617 4.58823 13.181 4.33048 13.4396L3.1254 14.6447C2.99662 14.7743 2.82698 14.8379 2.65763 14.838C2.48832 14.838 2.31868 14.7742 2.18986 14.6447C1.93125 14.3861 1.93128 13.9677 2.18986 13.7091L3.39396 12.5031Z" fill="#FCFAF9"/>
</svg>
