<svg width="74" height="74" viewBox="0 0 74 74" fill="none" xmlns="http://www.w3.org/2000/svg">
<rect width="73.4713" height="73.4713" rx="36.7356" fill="#25BA72"/>
<path d="M36.7354 19.54C27.2608 19.54 19.54 27.2608 19.54 36.7354C19.54 46.2101 27.2608 53.9309 36.7354 53.9309C46.2101 53.9309 53.9309 46.2101 53.9309 36.7354C53.9309 27.2608 46.2101 19.54 36.7354 19.54ZM44.9549 32.7805L35.2051 42.5303C34.9643 42.771 34.6376 42.9086 34.2937 42.9086C33.9498 42.9086 33.6231 42.771 33.3823 42.5303L28.516 37.664C28.0174 37.1653 28.0174 36.34 28.516 35.8413C29.0147 35.3426 29.8401 35.3426 30.3388 35.8413L34.2937 39.7962L43.1321 30.9578C43.6308 30.4591 44.4562 30.4591 44.9549 30.9578C45.4535 31.4565 45.4535 32.2646 44.9549 32.7805Z" fill="#272727"/>
</svg>
