<svg width="74" height="65" viewBox="0 0 74 65" fill="none" xmlns="http://www.w3.org/2000/svg">
<path d="M39.9922 1.75512L73.4338 59.6793C73.7419 60.213 73.9041 60.8184 73.9041 61.4346C73.9041 62.0508 73.7419 62.6562 73.4338 63.1899C73.1257 63.7235 72.6825 64.1667 72.1489 64.4748C71.6152 64.783 71.0099 64.9452 70.3936 64.9452H3.51047C2.89425 64.9452 2.28888 64.783 1.75522 64.4748C1.22156 64.1667 0.778409 63.7235 0.470303 63.1899C0.162198 62.6562 -3.91368e-06 62.0508 0 61.4346C3.91382e-06 60.8184 0.162214 60.213 0.470326 59.6793L33.9119 1.75512C34.22 1.22149 34.6632 0.778368 35.1968 0.47028C35.7305 0.162193 36.3358 0 36.9521 0C37.5683 0 38.1736 0.162193 38.7073 0.47028C39.2409 0.778368 39.6841 1.22149 39.9922 1.75512ZM33.4415 47.3924V54.4135H40.4626V47.3924H33.4415ZM33.4415 22.8185V40.3713H40.4626V22.8185H33.4415Z" fill="#F99F0F"/>
</svg>
