<svg width="544" height="525" viewBox="0 0 544 525" fill="none" xmlns="http://www.w3.org/2000/svg">
<g clip-path="url(#clip0_62_14)">
<path d="M271.5 0L411.253 269.23L477.376 263.73L543.5 258.23L441.356 327.222C485.866 412.969 543.5 524 543.5 524L451.703 524.23L372.5 373.73L86.7031 524.23H0L42.3056 442.543L352.5 328.23C352.5 328.23 352.621 328.186 352.855 328.1C357.173 326.521 515.866 268.404 543.5 258.23L477.376 263.73L411.253 269.23L337.095 296.565L274 171.23L227.839 258.23L175.992 355.947L0 420.82L84.9539 360.195L135.75 262.115L271.5 0Z" fill="#FFF9F4"/>
</g>
<defs>
<clipPath id="clip0_62_14">
<rect width="544" height="525" fill="white"/>
</clipPath>
</defs>
</svg>
