<svg width="500" height="500" viewBox="0 0 500 500" fill="none" xmlns="http://www.w3.org/2000/svg">
<path d="M500 250C500 388.071 388.071 500 250 500C111.929 500 0 388.071 0 250C0 111.929 111.929 0 250 0C388.071 0 500 111.929 500 250ZM17.8119 250C17.8119 378.234 121.766 482.188 250 482.188C378.234 482.188 482.188 378.234 482.188 250C482.188 121.766 378.234 17.8119 250 17.8119C121.766 17.8119 17.8119 121.766 17.8119 250Z" fill="#FBE770"/>
<path d="M88.5 5L105.056 62.9444L163 79.5L105.056 96.0556L88.5 154L71.9444 96.0556L14 79.5L71.9444 62.9444L88.5 5Z" fill="#FBE770"/>
<path d="M431 363L441 398L476 408L441 418L431 453L421 418L386 408L421 398L431 363Z" fill="#FBE770"/>
<path d="M431 390L435 404L449 408L435 412L431 426L427 412L413 408L427 404L431 390Z" fill="white" fill-opacity="0.34"/>
<path d="M443.5 398L448.944 417.056L468 422.5L448.944 427.944L443.5 447L438.056 427.944L419 422.5L438.056 417.056L443.5 398Z" fill="#D9D9D9"/>
<path d="M89 53L94.7778 73.2222L115 79L94.7778 84.7778L89 105L83.2222 84.7778L63 79L83.2222 73.2222L89 53Z" fill="white" fill-opacity="0.34"/>
<path d="M62 67L70.4444 96.5556L100 105L70.4444 113.444L62 143L53.5556 113.444L24 105L53.5556 96.5556L62 67Z" fill="#D9D9D9"/>
</svg>
